HIERARCHY
ROOT Hips
{
	OFFSET -0.001494 105.246208 1.801262
	CHANNELS 6 Xposition Yposition Zposition Xrotation Yrotation Zrotation
	JOINT Spine
	{
		OFFSET 0.000000 5.245270 0.258842
		CHANNELS 6 Xposition Yposition Zposition Xrotation Yrotation Zrotation
		JOINT Spine1
		{
			OFFSET -0.031371 11.044922 -0.697583
			CHANNELS 6 Xposition Yposition Zposition Xrotation Yrotation Zrotation
			JOINT Spine2
			{
				OFFSET -0.035852 8.068886 -1.087744
				CHANNELS 6 Xposition Yposition Zposition Xrotation Yrotation Zrotation
				JOINT Neck
				{
					OFFSET -0.040334 18.919525 -3.736110
					CHANNELS 6 Xposition Yposition Zposition Xrotation Yrotation Zrotation
					JOINT Head
					{
						OFFSET 0.000000 8.672989 3.319307
						CHANNELS 6 Xposition Yposition Zposition Xrotation Yrotation Zrotation
						JOINT HeadTop_End
						{
							OFFSET 0.000000 17.183868 4.948500
							CHANNELS 6 Xposition Yposition Zposition Xrotation Yrotation Zrotation
							End Site
							{
								OFFSET 0.000000 17.882202 0.000000
							}
						}
					}
				}
				JOINT RightShoulder
				{
					OFFSET -6.576708 15.024460 -2.119623
					CHANNELS 6 Xposition Yposition Zposition Xrotation Yrotation Zrotation
					JOINT RightArm
					{
						OFFSET -8.685034 -1.766235 -2.569614
						CHANNELS 6 Xposition Yposition Zposition Xrotation Yrotation Zrotation
						JOINT RightForeArm
						{
							OFFSET -24.573875 -0.000076 0.000008
							CHANNELS 6 Xposition Yposition Zposition Xrotation Yrotation Zrotation
							JOINT RightHand
							{
								OFFSET -23.096600 0.000000 -0.000057
								CHANNELS 6 Xposition Yposition Zposition Xrotation Yrotation Zrotation
								JOINT RightHandThumb1
								{
									OFFSET -3.660328 -1.517685 2.006158
									CHANNELS 6 Xposition Yposition Zposition Xrotation Yrotation Zrotation
									JOINT RightHandThumb2
									{
										OFFSET -2.341873 -1.352051 1.352051
										CHANNELS 6 Xposition Yposition Zposition Xrotation Yrotation Zrotation
										JOINT RightHandThumb3
										{
											OFFSET -3.105766 -1.793182 1.793095
											CHANNELS 6 Xposition Yposition Zposition Xrotation Yrotation Zrotation
											JOINT RightHandThumb4
											{
												OFFSET -2.400726 -1.635406 1.500034
												CHANNELS 6 Xposition Yposition Zposition Xrotation Yrotation Zrotation
												End Site
												{
													OFFSET 0.000000 3.269272 0.000000
												}
											}
										}
									}
								}
								JOINT RightHandIndex1
								{
									OFFSET -11.104465 -0.228546 2.326702
									CHANNELS 6 Xposition Yposition Zposition Xrotation Yrotation Zrotation
									JOINT RightHandIndex2
									{
										OFFSET -2.594727 -0.000015 0.000042
										CHANNELS 6 Xposition Yposition Zposition Xrotation Yrotation Zrotation
										JOINT RightHandIndex3
										{
											OFFSET -1.969856 -0.000046 -0.000008
											CHANNELS 6 Xposition Yposition Zposition Xrotation Yrotation Zrotation
											JOINT RightHandIndex4
											{
												OFFSET -2.509735 0.055679 -0.085040
												CHANNELS 6 Xposition Yposition Zposition Xrotation Yrotation Zrotation
												End Site
												{
													OFFSET 0.000000 2.511795 0.000000
												}
											}
										}
									}
								}
								JOINT RightHandMiddle1
								{
									OFFSET -11.447567 -0.000046 -0.000002
									CHANNELS 6 Xposition Yposition Zposition Xrotation Yrotation Zrotation
									JOINT RightHandMiddle2
									{
										OFFSET -2.882370 -0.000046 -0.000004
										CHANNELS 6 Xposition Yposition Zposition Xrotation Yrotation Zrotation
										JOINT RightHandMiddle3
										{
											OFFSET -2.055771 0.000046 -0.000019
											CHANNELS 6 Xposition Yposition Zposition Xrotation Yrotation Zrotation
											JOINT RightHandMiddle4
											{
												OFFSET -2.746132 -0.000015 -0.000031
												CHANNELS 6 Xposition Yposition Zposition Xrotation Yrotation Zrotation
												End Site
												{
													OFFSET 0.000000 2.746124 0.000000
												}
											}
										}
									}
								}
								JOINT RightHandRing1
								{
									OFFSET -10.605587 0.267212 -2.247445
									CHANNELS 6 Xposition Yposition Zposition Xrotation Yrotation Zrotation
									JOINT RightHandRing2
									{
										OFFSET -3.015953 0.000015 -0.000019
										CHANNELS 6 Xposition Yposition Zposition Xrotation Yrotation Zrotation
										JOINT RightHandRing3
										{
											OFFSET -2.233109 -0.006912 -0.037389
											CHANNELS 6 Xposition Yposition Zposition Xrotation Yrotation Zrotation
											JOINT RightHandRing4
											{
												OFFSET -2.304543 0.000015 -0.000048
												CHANNELS 6 Xposition Yposition Zposition Xrotation Yrotation Zrotation
												End Site
												{
													OFFSET 0.000000 2.304535 0.000000
												}
											}
										}
									}
								}
								JOINT RightHandPinky1
								{
									OFFSET -9.628193 -0.343552 -4.027740
									CHANNELS 6 Xposition Yposition Zposition Xrotation Yrotation Zrotation
									JOINT RightHandPinky2
									{
										OFFSET -2.737686 0.000015 -0.000008
										CHANNELS 6 Xposition Yposition Zposition Xrotation Yrotation Zrotation
										JOINT RightHandPinky3
										{
											OFFSET -1.441856 0.000031 -0.000046
											CHANNELS 6 Xposition Yposition Zposition Xrotation Yrotation Zrotation
											JOINT RightHandPinky4
											{
												OFFSET -2.097328 -0.000031 0.000040
												CHANNELS 6 Xposition Yposition Zposition Xrotation Yrotation Zrotation
												End Site
												{
													OFFSET 0.000000 2.097336 0.000000
												}
											}
										}
									}
								}
							}
						}
					}
				}
				JOINT LeftShoulder
				{
					OFFSET 6.711155 15.024460 -2.119623
					CHANNELS 6 Xposition Yposition Zposition Xrotation Yrotation Zrotation
					JOINT LeftArm
					{
						OFFSET 8.685034 -1.766235 -2.569614
						CHANNELS 6 Xposition Yposition Zposition Xrotation Yrotation Zrotation
						JOINT LeftForeArm
						{
							OFFSET 24.573874 -0.000076 0.000008
							CHANNELS 6 Xposition Yposition Zposition Xrotation Yrotation Zrotation
							JOINT LeftHand
							{
								OFFSET 23.096603 0.000000 -0.000057
								CHANNELS 6 Xposition Yposition Zposition Xrotation Yrotation Zrotation
								JOINT LeftHandThumb1
								{
									OFFSET 3.660324 -1.517685 2.006158
									CHANNELS 6 Xposition Yposition Zposition Xrotation Yrotation Zrotation
									JOINT LeftHandThumb2
									{
										OFFSET 2.341873 -1.352051 1.352051
										CHANNELS 6 Xposition Yposition Zposition Xrotation Yrotation Zrotation
										JOINT LeftHandThumb3
										{
											OFFSET 3.105766 -1.793182 1.793095
											CHANNELS 6 Xposition Yposition Zposition Xrotation Yrotation Zrotation
											JOINT LeftHandThumb4
											{
												OFFSET 2.400726 -1.635406 1.500034
												CHANNELS 6 Xposition Yposition Zposition Xrotation Yrotation Zrotation
												End Site
												{
													OFFSET 0.000000 3.269272 0.000000
												}
											}
										}
									}
								}
								JOINT LeftHandIndex1
								{
									OFFSET 11.104462 -0.228546 2.326702
									CHANNELS 6 Xposition Yposition Zposition Xrotation Yrotation Zrotation
									JOINT LeftHandIndex2
									{
										OFFSET 2.594727 -0.000015 0.000042
										CHANNELS 6 Xposition Yposition Zposition Xrotation Yrotation Zrotation
										JOINT LeftHandIndex3
										{
											OFFSET 1.969856 -0.000046 -0.000008
											CHANNELS 6 Xposition Yposition Zposition Xrotation Yrotation Zrotation
											JOINT LeftHandIndex4
											{
												OFFSET 2.509735 0.055679 -0.085040
												CHANNELS 6 Xposition Yposition Zposition Xrotation Yrotation Zrotation
												End Site
												{
													OFFSET 0.000000 2.511795 0.000000
												}
											}
										}
									}
								}
								JOINT LeftHandMiddle1
								{
									OFFSET 11.447563 -0.000046 -0.000002
									CHANNELS 6 Xposition Yposition Zposition Xrotation Yrotation Zrotation
									JOINT LeftHandMiddle2
									{
										OFFSET 2.882378 -0.000046 -0.000004
										CHANNELS 6 Xposition Yposition Zposition Xrotation Yrotation Zrotation
										JOINT LeftHandMiddle3
										{
											OFFSET 2.055763 0.000046 -0.000019
											CHANNELS 6 Xposition Yposition Zposition Xrotation Yrotation Zrotation
											JOINT LeftHandMiddle4
											{
												OFFSET 2.746132 -0.000015 -0.000031
												CHANNELS 6 Xposition Yposition Zposition Xrotation Yrotation Zrotation
												End Site
												{
													OFFSET 0.000000 2.746124 0.000000
												}
											}
										}
									}
								}
								JOINT LeftHandRing1
								{
									OFFSET 10.605583 0.267212 -2.247445
									CHANNELS 6 Xposition Yposition Zposition Xrotation Yrotation Zrotation
									JOINT LeftHandRing2
									{
										OFFSET 3.015953 0.000015 -0.000019
										CHANNELS 6 Xposition Yposition Zposition Xrotation Yrotation Zrotation
										JOINT LeftHandRing3
										{
											OFFSET 2.233116 -0.006912 -0.037389
											CHANNELS 6 Xposition Yposition Zposition Xrotation Yrotation Zrotation
											JOINT LeftHandRing4
											{
												OFFSET 2.304535 0.000015 -0.000048
												CHANNELS 6 Xposition Yposition Zposition Xrotation Yrotation Zrotation
												End Site
												{
													OFFSET 0.000000 2.304535 0.000000
												}
											}
										}
									}
								}
								JOINT LeftHandPinky1
								{
									OFFSET 9.628189 -0.343552 -4.027740
									CHANNELS 6 Xposition Yposition Zposition Xrotation Yrotation Zrotation
									JOINT LeftHandPinky2
									{
										OFFSET 2.737694 0.000015 -0.000008
										CHANNELS 6 Xposition Yposition Zposition Xrotation Yrotation Zrotation
										JOINT LeftHandPinky3
										{
											OFFSET 1.441856 0.000031 -0.000046
											CHANNELS 6 Xposition Yposition Zposition Xrotation Yrotation Zrotation
											JOINT LeftHandPinky4
											{
												OFFSET 2.097328 -0.000031 0.000040
												CHANNELS 6 Xposition Yposition Zposition Xrotation Yrotation Zrotation
												End Site
												{
													OFFSET 0.000000 2.097336 0.000000
												}
											}
										}
									}
								}
							}
						}
					}
				}
			}
		}
	}
	JOINT LeftUpLeg
	{
		OFFSET 9.688764 -5.685173 -1.688624
		CHANNELS 6 Xposition Yposition Zposition Xrotation Yrotation Zrotation
		JOINT LeftLeg
		{
			OFFSET -0.649575 -43.138977 1.439056
			CHANNELS 6 Xposition Yposition Zposition Xrotation Yrotation Zrotation
			JOINT LeftFoot
			{
				OFFSET 0.663087 -40.700974 -4.209043
				CHANNELS 6 Xposition Yposition Zposition Xrotation Yrotation Zrotation
				JOINT LeftToeBase
				{
					OFFSET 0.862034 -15.666403 8.614094
					CHANNELS 6 Xposition Yposition Zposition Xrotation Yrotation Zrotation
					JOINT LeftToe_End
					{
						OFFSET 2.007552 -0.054584 13.323666
						CHANNELS 6 Xposition Yposition Zposition Xrotation Yrotation Zrotation
						End Site
						{
							OFFSET 0.000000 13.474172 0.000000
						}
					}
				}
			}
		}
	}
	JOINT RightUpLeg
	{
		OFFSET -9.688764 -5.685173 -1.688624
		CHANNELS 6 Xposition Yposition Zposition Xrotation Yrotation Zrotation
		JOINT RightLeg
		{
			OFFSET 0.663486 -43.138771 1.438943
			CHANNELS 6 Xposition Yposition Zposition Xrotation Yrotation Zrotation
			JOINT RightFoot
			{
				OFFSET -0.649920 -40.701214 -4.208930
				CHANNELS 6 Xposition Yposition Zposition Xrotation Yrotation Zrotation
				JOINT RightToeBase
				{
					OFFSET -0.862031 -15.666408 8.614103
					CHANNELS 6 Xposition Yposition Zposition Xrotation Yrotation Zrotation
					JOINT RightToe_End
					{
						OFFSET -2.007559 -0.054583 13.323669
						CHANNELS 6 Xposition Yposition Zposition Xrotation Yrotation Zrotation
						End Site
						{
							OFFSET 0.000000 13.474177 0.000000
						}
					}
				}
			}
		}
	}
}
MOTION
Frames: 3
Frame Time: 0.033333
-0.298416 94.741356 3.266780 -8.584740 -13.107959 1.366465 -0.000001 5.245270 0.258842 -0.759255 2.008129 -3.825230 -0.031371 11.044921 -0.697580 8.737513 0.082708 -0.966353 -0.035853 8.068891 -1.087744 8.741236 0.148172 -0.949499 -0.040334 18.919506 -3.736110 -1.671232 1.683760 0.533474 -0.000001 8.672973 3.319306 -18.043927 10.852437 -4.668317 0.000000 17.183853 4.948498 0.000001 0.000000 0.000000 -6.576709 15.024452 -2.119623 0.762440 5.560947 0.561313 -8.685034 -1.766233 -2.569610 70.628951 0.849869 58.168104 -24.573875 -0.000085 -0.000001 0.000327 124.661430 -0.000406 -23.096632 -0.000008 -0.000061 18.292425 -6.186138 -4.488911 -3.660321 -1.517680 2.006160 -2.627588 -23.317448 -9.852204 -2.341876 -1.352045 1.352054 4.638183 -8.633013 -0.223120 -3.105782 -1.793177 1.793092 -2.434845 -1.338150 -5.494564 -2.400738 -1.635423 1.500035 -0.000002 -0.000002 -0.000002 -11.104461 -0.228535 2.326709 0.004784 -0.257847 2.123981 -2.594737 -0.000019 0.000045 0.040316 -0.747909 6.171932 -1.969861 -0.000039 -0.000017 -0.189564 1.177806 7.443809 -2.509735 0.055679 -0.085036 -0.000001 -0.000001 -0.000000 -11.447560 -0.000048 -0.000004 0.011904 -0.406744 3.351664 -2.882361 -0.000052 -0.000002 0.057624 -0.893456 7.381952 -2.055754 0.000041 -0.000015 0.058047 -0.897112 7.406778 -2.746146 -0.000018 -0.000031 0.000003 0.000001 -0.000000 -10.605570 0.267214 -2.247440 0.025470 -0.594687 4.903855 -3.015962 0.000022 -0.000015 -0.063225 -0.127614 8.718022 -2.233111 -0.006918 -0.037384 0.088801 -2.036675 9.088814 -2.304551 0.000015 -0.000052 -0.000001 -0.000001 0.000000 -9.628178 -0.343530 -4.027735 0.040519 -0.749685 6.186440 -2.737705 0.000015 -0.000015 0.107338 -1.217182 10.077640 -1.441856 0.000031 -0.000047 0.107327 -1.217190 10.077646 -2.097323 -0.000032 0.000041 0.000001 0.000002 0.000001 6.711154 15.024473 -2.119624 0.963208 -5.156263 13.308099 8.685040 -1.766236 -2.569623 71.220691 -35.969234 -48.793881 24.573866 -0.000072 -0.000008 0.000726 -107.723647 0.000738 23.096571 -0.000001 -0.000049 4.173745 -3.972184 52.437203 3.660330 -1.517681 2.006158 -3.099522 17.372467 12.083821 2.341866 -1.352017 1.352056 3.939964 7.947842 0.744797 3.105772 -1.793176 1.793092 -1.752914 3.041073 5.972973 2.400717 -1.635409 1.500031 -0.000001 0.000001 0.000001 11.104467 -0.228551 2.326705 0.003927 -0.232198 1.931534 2.594708 -0.000027 0.000054 0.204340 1.665196 -13.991633 1.969855 -0.000034 -0.000014 -0.285318 -0.211443 -15.256457 2.509737 0.055678 -0.085040 -0.000000 0.000001 -0.000001 11.447561 -0.000030 -0.000000 0.001703 -0.152553 1.268954 2.882380 -0.000047 0.000003 0.221330 1.731870 -14.567274 2.055786 0.000064 -0.000021 0.228941 1.761222 -14.814368 2.746133 -0.000015 -0.000040 -0.000000 0.000001 0.000003 10.605581 0.267208 -2.247445 0.000192 -0.050495 0.420333 3.015959 0.000032 -0.000024 -0.006121 0.903190 -15.215575 2.233117 -0.006928 -0.037390 0.263012 2.817474 -15.840510 2.304546 0.000013 -0.000039 -0.000000 0.000001 0.000001 9.628197 -0.343556 -4.027739 -0.000419 4.084325 0.261343 2.737692 0.000017 0.000003 0.271899 -2.137791 -16.670622 1.441866 0.000032 -0.000046 0.272858 1.919135 -16.181548 2.097332 -0.000033 0.000036 0.000001 0.000001 0.000001 9.688764 -5.685181 -1.688624 -7.630076 1.751129 1.604162 -0.649574 -43.138985 1.439058 45.162174 8.835033 4.773807 0.663086 -40.700977 -4.209041 -26.103243 10.817829 -13.021160 0.862032 -15.666407 8.614093 -0.000090 0.000001 -0.000001 2.007551 -0.054584 13.323666 0.000000 -0.000000 -0.000000 -9.688765 -5.685169 -1.688624 -11.320478 -1.626703 -9.785827 0.663483 -43.138767 1.438940 48.071667 -4.574085 -7.191195 -0.649918 -40.701218 -4.208929 -27.618078 -4.039112 13.912934 -0.862029 -15.666409 8.614105 -0.570309 0.000007 0.000002 -2.007560 -0.054583 13.323669 0.000000 -0.000002 -0.000000 
-0.114099 93.532623 2.851247 -10.914230 -12.845673 -0.000006 -0.000000 5.245272 0.258845 1.422345 2.291024 -3.406293 -0.031371 11.044911 -0.697584 9.361109 0.185288 -0.380527 -0.035852 8.068884 -1.087744 9.361125 0.251904 -0.356786 -0.040334 18.919519 -3.736111 -2.373686 1.631085 0.349573 -0.000000 8.673008 3.319306 -19.232624 10.411475 -4.613306 -0.000004 17.183868 4.948498 -0.000001 -0.000000 -0.000000 -6.576709 15.024487 -2.119627 0.770606 5.904865 0.947379 -8.685027 -1.766245 -2.569619 72.993829 -4.342261 60.701612 -24.573877 -0.000073 -0.000010 0.000325 129.883943 -0.000391 -23.096621 0.000004 -0.000067 18.523166 -6.155227 -1.838963 -3.660319 -1.517682 2.006155 -2.627599 -23.317448 -9.852208 -2.341874 -1.352045 1.352047 4.638183 -8.633015 -0.223117 -3.105766 -1.793176 1.793097 -2.434844 -1.338148 -5.494565 -2.400723 -1.635402 1.500036 -0.000001 0.000003 0.000002 -11.104459 -0.228528 2.326703 0.005908 -0.286416 2.359643 -2.594726 -0.000024 0.000037 0.041880 -0.762152 6.289723 -1.969853 -0.000035 -0.000007 -0.191976 1.163129 7.561627 -2.509727 0.055680 -0.085041 -0.000001 0.000001 -0.000000 -11.447569 -0.000040 -0.000009 0.013224 -0.428697 3.532900 -2.882363 -0.000042 -0.000008 0.059077 -0.904721 7.475530 -2.055765 0.000056 -0.000022 0.059468 -0.907989 7.497038 -2.746122 -0.000015 -0.000029 -0.000001 0.000000 -0.000001 -10.605576 0.267208 -2.247446 0.026673 -0.608617 5.019023 -3.015945 0.000032 -0.000016 -0.063090 -0.134891 8.777458 -2.233096 -0.006906 -0.037389 0.089903 -2.043557 9.146206 -2.304548 0.000017 -0.000050 0.000000 0.000000 -0.000001 -9.628176 -0.343556 -4.027739 0.041349 -0.757245 6.249162 -2.737692 0.000014 -0.000016 0.107998 -1.220928 10.109048 -1.441835 0.000027 -0.000039 0.107987 -1.220937 10.109006 -2.097331 -0.000030 0.000037 -0.000001 -0.000001 -0.000002 6.711155 15.024472 -2.119625 0.912052 -4.822470 13.060202 8.685026 -1.766255 -2.569618 69.779624 -36.285424 -47.249558 24.573870 -0.000069 -0.000006 0.000710 -107.708641 0.000752 23.096590 -0.000007 -0.000063 6.172030 -4.880222 52.815677 3.660325 -1.517680 2.006156 -3.099527 17.372463 12.083820 2.341887 -1.352073 1.352047 3.939965 7.947841 0.744798 3.105766 -1.793189 1.793100 -1.752913 3.041072 5.972976 2.400726 -1.635406 1.500031 0.000001 0.000001 -0.000000 11.104466 -0.228532 2.326706 0.003669 -0.225192 1.873304 2.594722 -0.000033 0.000042 0.205001 1.667745 -14.013741 1.969846 -0.000029 -0.000010 -0.285405 -0.208678 -15.278537 2.509745 0.055683 -0.085036 -0.000002 0.000000 -0.000001 11.447572 -0.000044 -0.000006 0.001528 -0.145499 1.210181 2.882377 -0.000046 -0.000005 0.222012 1.734480 -14.589740 2.055788 0.000045 -0.000032 0.229586 1.763723 -14.835680 2.746134 -0.000016 -0.000032 -0.000000 0.000003 0.000002 10.605586 0.267210 -2.247447 0.000136 -0.043331 0.360426 3.015956 0.000017 -0.000021 -0.005779 0.905845 -15.237566 2.233120 -0.006930 -0.037396 0.263714 2.819864 -15.861313 2.304528 0.000016 -0.000035 -0.000000 -0.000002 -0.000000 9.628195 -0.343553 -4.027745 0.003936 4.091622 0.199994 2.737691 -0.000002 -0.000004 0.272623 -2.135381 -16.691396 1.441871 0.000029 -0.000045 0.273547 1.921537 -16.202390 2.097329 -0.000029 0.000048 0.000001 -0.000001 0.000003 9.688763 -5.685175 -1.688623 -7.495834 2.670391 3.017036 -0.649574 -43.138973 1.439059 49.122150 9.348124 5.176915 0.663088 -40.700974 -4.209042 -28.065775 9.519118 -13.849046 0.862033 -15.666406 8.614093 -0.000098 -0.000001 0.000004 2.007553 -0.054584 13.323668 -0.000000 -0.000000 0.000000 -9.688764 -5.685176 -1.688623 -10.461551 -1.560605 -8.659961 0.663485 -43.138763 1.438940 50.990764 -5.157644 -7.779096 -0.649918 -40.701210 -4.208931 -28.983365 -4.508508 14.462383 -0.862030 -15.666407 8.614105 -0.650588 -0.000003 -0.000001 -2.007560 -0.054583 13.323669 -0.000000 -0.000000 0.000000 
0.208901 92.571007 2.313165 -14.068137 -13.005485 -1.608175 -0.000000 5.245263 0.258842 4.564423 2.176972 -3.391724 -0.031370 11.044922 -0.697583 10.131397 0.234284 0.288491 -0.035852 8.068886 -1.087743 10.128313 0.314777 0.309969 -0.040334 18.919537 -3.736112 -3.119913 1.459467 0.555153 -0.000000 8.672976 3.319312 -20.832926 9.761671 -4.394318 0.000001 17.183853 4.948499 -0.000001 0.000000 -0.000001 -6.576708 15.024486 -2.119626 0.778391 6.087532 1.324939 -8.685031 -1.766249 -2.569615 73.910959 -10.129317 63.852222 -24.573874 -0.000080 0.000002 0.000274 133.973655 -0.000370 -23.096605 0.000001 -0.000062 20.232238 -6.012172 3.024051 -3.660336 -1.517684 2.006153 -2.627599 -23.317463 -9.852211 -2.341872 -1.352044 1.352047 4.638181 -8.633014 -0.223118 -3.105773 -1.793176 1.793098 -2.434844 -1.338149 -5.494568 -2.400712 -1.635406 1.500038 -0.000003 0.000000 -0.000003 -11.104471 -0.228529 2.326698 0.012594 -0.418396 3.447746 -2.594706 -0.000034 0.000047 0.049421 -0.827786 6.833901 -1.969844 -0.000041 -0.000020 -0.202701 1.095198 8.105530 -2.509749 0.055682 -0.085037 -0.000001 -0.000002 -0.000000 -11.447564 -0.000050 -0.000004 0.019208 -0.516600 4.258425 -2.882371 -0.000035 -0.000003 0.065145 -0.949794 7.850083 -2.055766 0.000047 -0.000016 0.065331 -0.951458 7.858402 -2.746134 -0.000018 -0.000029 -0.000000 0.000001 0.000001 -10.605591 0.267247 -2.247449 0.029741 -0.642645 5.300210 -3.015949 0.000033 -0.000016 -0.062723 -0.152669 8.922560 -2.233109 -0.006919 -0.037384 0.092641 -2.060328 9.286331 -2.304534 0.000013 -0.000050 0.000004 0.000000 -0.000000 -9.628196 -0.343539 -4.027739 0.040348 -0.748239 6.174373 -2.737700 0.000032 -0.000008 0.107192 -1.216467 10.071615 -1.441846 0.000029 -0.000045 0.107205 -1.216470 10.071610 -2.097326 -0.000034 0.000041 0.000005 -0.000001 -0.000001 6.711155 15.024495 -2.119628 0.873811 -4.563620 13.241191 8.685034 -1.766246 -2.569604 67.921635 -36.686705 -45.420352 24.573870 -0.000083 0.000000 0.000617 -107.346361 0.000672 23.096607 -0.000020 -0.000058 7.949495 -6.463322 53.469887 3.660321 -1.517682 2.006165 -3.099522 17.372463 12.083825 2.341870 -1.352046 1.352053 3.939967 7.947843 0.744795 3.105766 -1.793185 1.793096 -1.752914 3.041073 5.972973 2.400715 -1.635404 1.500032 0.000002 0.000000 0.000002 11.104461 -0.228538 2.326710 0.003677 -0.225112 1.872533 2.594724 -0.000033 0.000050 0.204956 1.667569 -14.012203 1.969861 -0.000035 -0.000015 -0.285395 -0.208868 -15.277002 2.509727 0.055680 -0.085033 -0.000001 0.000002 -0.000000 11.447560 -0.000038 -0.000005 0.001515 -0.144608 1.202730 2.882368 -0.000046 -0.000005 0.222054 1.734652 -14.591244 2.055761 0.000046 -0.000018 0.229640 1.763875 -14.837051 2.746134 -0.000015 -0.000020 0.000001 -0.000004 -0.000001 10.605581 0.267207 -2.247447 0.000123 -0.041501 0.345234 3.015955 0.000032 -0.000022 -0.005683 0.906472 -15.242993 2.233124 -0.006912 -0.037395 0.263885 2.820479 -15.866427 2.304541 0.000017 -0.000058 -0.000002 0.000003 0.000000 9.628193 -0.343550 -4.027738 0.005497 4.094222 0.178203 2.737694 0.000019 -0.000006 0.272911 -2.134441 -16.699625 1.441854 0.000031 -0.000044 0.273837 1.922486 -16.210634 2.097328 -0.000034 0.000033 0.000001 0.000001 -0.000000 9.688764 -5.685170 -1.688621 -6.262734 4.922234 4.659395 -0.649575 -43.138981 1.439052 52.084294 9.543344 6.028024 0.663088 -40.700970 -4.209040 -29.659396 7.850162 -14.551571 0.862036 -15.666404 8.614093 -0.000026 -0.000004 -0.000002 2.007553 -0.054584 13.323666 -0.000000 0.000000 0.000000 -9.688763 -5.685184 -1.688622 -8.713830 -2.140758 -7.370275 0.663482 -43.138760 1.438947 53.006783 -5.142166 -9.307015 -0.649918 -40.701218 -4.208929 -29.744357 -4.984333 15.102281 -0.862029 -15.666408 8.614103 -1.113074 0.000002 -0.000004 -2.007560 -0.054583 13.323669 0.000000 -0.000002 0.000000 
